<?xml version="1.0" encoding="UTF-8" standalone="no"?>
<!-- Created with Inkscape (http://www.inkscape.org/) -->

<svg
   width="210mm"
   height="297mm"
   viewBox="0 0 210 297"
   version="1.1"
   id="svg3816"
   inkscape:version="1.2.1 (9c6d41e4, 2022-07-14)"
   sodipodi:docname="monogame-aseprite-logo.svg"
   xmlns:inkscape="http://www.inkscape.org/namespaces/inkscape"
   xmlns:sodipodi="http://sodipodi.sourceforge.net/DTD/sodipodi-0.dtd"
   xmlns="http://www.w3.org/2000/svg"
   xmlns:svg="http://www.w3.org/2000/svg">
  <sodipodi:namedview
     id="namedview3818"
     pagecolor="#ffffff"
     bordercolor="#666666"
     borderopacity="1.0"
     inkscape:showpageshadow="2"
     inkscape:pageopacity="0.0"
     inkscape:pagecheckerboard="0"
     inkscape:deskcolor="#d1d1d1"
     inkscape:document-units="mm"
     showgrid="false"
     inkscape:zoom="0.95144589"
     inkscape:cx="402.01971"
     inkscape:cy="383.62665"
     inkscape:window-width="1280"
     inkscape:window-height="456"
     inkscape:window-x="0"
     inkscape:window-y="25"
     inkscape:window-maximized="0"
     inkscape:current-layer="layer1" />
  <defs
     id="defs3813" />
  <g
     inkscape:label="Layer 1"
     inkscape:groupmode="layer"
     id="layer1">
    <g
       id="g3659"
       transform="matrix(0.99442797,0,0,0.99442797,35.464207,84.688673)">
      <path
         fill="#e73c00"
         d="m 88.014884,23.997651 v 0.760775 c 0,2.700751 -2.196743,4.897492 -4.897491,4.897492 H 65.600542 c -2.700753,0 -4.897494,-2.196741 -4.897494,-4.897492 V 7.2415716 c 0,-2.7007486 2.196741,-4.8974896 4.897494,-4.8974896 2.700753,0 4.897489,2.196741 4.897489,4.8974896 v 5.8389544 h 7.721866 V 7.2415716 c 0,-2.7007486 2.196741,-4.8974896 4.897496,-4.8974896 2.700748,0 4.897491,2.196741 4.897491,4.8974896 v 5.8389544 c -0.04764,1.972801 0,9.685705 0,10.917125 z"
         id="path3920-0-0-7"
         style="fill:#ffffff;fill-opacity:1;stroke:#393939;stroke-width:0.845055;stroke-dasharray:none;stroke-opacity:1"
         sodipodi:nodetypes="csssssssccssscc" />
      <path
         id="path3920-7-4-1"
         style="fill:#7e919f;fill-opacity:1;stroke:none;stroke-width:0.0926121"
         d="m 61.067375,24.665346 c 0,2.63169 2.138161,4.772296 4.766848,4.772296 h 17.049491 c 2.628684,0 4.766846,-2.140606 4.766846,-4.772296 v -0.741485 c 0,-0.12997 -0.0034,-0.830541 -0.0044,-1.093609 -0.692186,1.781274 -2.421534,3.047849 -4.442752,3.047849 H 66.153877 c -2.628686,0 -5.086502,-0.318706 -5.086502,-2.950401 0,-3.56182 0,0.16675 0,1.737646 z"
         sodipodi:nodetypes="csssscsscc" />
      <path
         style="fill:none;fill-opacity:1;stroke:#393939;stroke-width:2.36396;stroke-linecap:round;stroke-linejoin:round;stroke-dasharray:none;stroke-opacity:1"
         d="M 65.770941,7.3724135 V 11.875108"
         id="path4390-8-6-3"
         sodipodi:nodetypes="cc" />
      <path
         style="fill:none;fill-opacity:1;stroke:#393939;stroke-width:2.36396;stroke-linecap:round;stroke-linejoin:round;stroke-dasharray:none;stroke-opacity:1"
         d="M 83.117162,7.2415716 V 11.875108"
         id="path4390-8-8-8-03"
         sodipodi:nodetypes="cc" />
      <g
         id="g17845"
         transform="matrix(0.94503101,0,0,0.94503101,4.3360702,0.26921658)"
         style="stroke:#e73c00;stroke-opacity:1">
        <path
           style="font-variation-settings:normal;opacity:1;fill:#ffffff;fill-opacity:1;stroke:#e73c00;stroke-width:1;stroke-linecap:round;stroke-linejoin:round;stroke-miterlimit:4;stroke-dasharray:none;stroke-dashoffset:0;stroke-opacity:1;stop-color:#000000;stop-opacity:1"
           d="m 75.766713,18.422661 -3.341684,3.341684"
           id="path17810" />
        <path
           style="font-variation-settings:normal;fill:#ffffff;fill-opacity:1;stroke:#e73c00;stroke-width:1;stroke-linecap:round;stroke-linejoin:round;stroke-miterlimit:4;stroke-dasharray:none;stroke-dashoffset:0;stroke-opacity:1;stop-color:#000000"
           d="m 72.425029,18.422661 3.341684,3.341684"
           id="path17810-1" />
      </g>
    </g>
  </g>
</svg>
